<svg version="1.1" id="Layer_1" xmlns="http://www.w3.org/2000/svg" xmlns:xlink="http://www.w3.org/1999/xlink" x="0px" y="0px"
	 width="100%" viewBox="0 0 500 500" enable-background="new 0 0 500 500" xml:space="preserve">
<path fill="#000000" opacity="1.000000" stroke="none" 
	d="
M282.000000,501.000000 
	C188.000015,501.000000 94.500046,501.000000 1.000050,501.000000 
	C1.000033,334.333405 1.000033,167.666794 1.000017,1.000140 
	C167.666565,1.000093 334.333130,1.000093 500.999756,1.000046 
	C500.999847,167.666519 500.999847,334.333038 500.999939,500.999786 
	C428.166656,501.000000 355.333344,501.000000 282.000000,501.000000 
M414.002502,409.003235 
	C414.002502,409.003235 414.034241,409.052155 414.658905,408.815887 
	C415.470337,407.555420 416.281769,406.294952 417.017303,405.022705 
	C417.017303,405.022705 417.006012,405.098694 417.531128,404.915253 
	C417.732788,404.613220 417.934448,404.311218 418.745026,403.725342 
	C427.793884,392.189606 434.815552,379.624878 440.890930,366.182312 
	C446.360626,354.079987 448.133270,341.336334 450.641418,328.801941 
	C453.409943,314.966492 452.342102,300.805878 449.180756,286.746674 
	C446.042084,272.788452 442.432678,259.039154 436.411530,246.108627 
	C431.472137,235.501221 425.049469,225.822723 417.187775,216.890930 
	C406.783478,205.070496 395.708832,194.395081 382.407227,185.807251 
	C362.966431,173.255829 341.427155,167.380966 318.865570,165.194260 
	C304.708130,163.822098 290.370331,164.310349 275.617249,163.239075 
	C258.589417,163.169769 241.561584,163.092499 224.533691,163.068146 
	C224.002670,163.067383 223.470856,163.613647 222.092926,163.987350 
	C220.394714,164.046936 218.696503,164.106537 216.069580,164.022552 
	C208.059525,164.072754 200.049454,164.122955 191.211609,164.039230 
	C186.279373,165.361252 181.088440,166.097504 176.472672,168.136063 
	C168.620590,171.603958 162.379791,177.034760 158.972427,185.354294 
	C153.600174,198.471313 167.920700,219.643539 181.352722,220.726639 
	C183.175827,220.816864 184.998886,220.984436 186.822052,220.985687 
	C213.976685,221.004395 241.131775,220.909378 268.285797,221.039505 
	C283.199005,221.110962 298.110474,221.553085 313.736877,221.956879 
	C322.304077,223.917938 331.349060,224.731750 339.345917,228.062271 
	C360.533752,236.886597 376.958282,251.356979 385.893158,273.018402 
	C388.872894,280.242371 391.725403,287.818390 392.723206,295.482483 
	C393.899384,304.516663 393.933167,313.944916 392.736389,322.973541 
	C391.546478,331.950104 389.303558,341.139435 385.561554,349.340790 
	C380.265625,360.947968 372.303436,371.012573 362.303009,379.293762 
	C348.481659,390.739044 333.234375,398.800537 314.134064,400.026550 
	C311.099213,400.319641 308.064362,400.612732 304.595642,400.155426 
	C259.069519,400.104767 213.543411,400.050140 168.017303,400.041016 
	C167.334000,400.040894 166.650589,400.604675 165.036835,400.982330 
	C153.158188,400.991699 141.279312,400.966766 129.401215,401.053040 
	C127.885712,401.064026 126.374428,401.655396 124.079086,401.991577 
	C121.680923,402.853699 119.346893,404.061951 116.873901,404.520172 
	C103.588486,406.981903 97.096878,424.290436 99.804398,435.076355 
	C102.947281,447.596527 113.915817,456.429596 126.340195,457.746521 
	C138.558609,457.781525 150.777039,457.816528 163.917633,457.981964 
	C168.281052,457.931274 172.644485,457.880585 177.935669,457.970856 
	C207.968094,457.926575 238.000534,457.882294 268.942841,457.975159 
	C272.642761,457.927826 276.342712,457.880493 280.964111,457.968658 
	C290.521759,457.975983 300.079742,458.026825 309.636658,457.945831 
	C311.149963,457.933044 312.658234,457.325653 315.048309,456.998932 
	C326.783905,454.678467 338.530823,452.413605 350.252075,450.022919 
	C363.751526,447.269562 375.134460,439.824402 386.512604,432.729919 
	C393.509491,428.367218 399.519989,422.422546 406.595703,416.890656 
	C408.746765,414.602325 410.897827,412.314026 412.997650,410.000488 
	C412.997650,410.000488 413.001221,410.057495 413.525574,409.911987 
	C413.703979,409.609589 413.882385,409.307159 414.002502,409.003235 
M173.917831,103.983299 
	C179.817978,103.655952 185.714722,103.163185 191.619110,103.041786 
	C199.575653,102.878189 207.538666,103.050095 215.497482,102.957245 
	C217.028931,102.939384 218.553879,102.364555 220.858795,101.986679 
	C236.528778,99.074699 243.805756,88.597992 244.438126,73.703270 
	C244.802628,65.117714 241.794846,56.688412 233.587189,52.053478 
	C228.750992,49.322441 223.190781,47.873535 217.448669,45.184906 
	C206.977219,45.121994 196.505737,45.032784 186.034317,45.037304 
	C184.999863,45.037750 183.965683,45.611778 182.026260,45.982803 
	C177.530106,46.644886 173.053802,47.613361 168.533722,47.906399 
	C158.583664,48.551468 149.158798,51.267727 139.520767,53.566952 
	C128.467285,56.203827 119.084808,61.786556 109.815536,67.238724 
	C100.104591,72.950684 91.400009,80.721893 83.239342,88.610718 
	C76.734428,94.898949 71.581665,102.621101 66.076790,109.894516 
	C63.111401,113.812592 60.095127,117.869331 58.107422,122.313293 
	C53.976673,131.548508 50.167419,140.964157 46.893059,150.533890 
	C44.395943,157.832031 41.905102,165.392670 41.242546,172.996094 
	C40.289249,183.935959 40.990177,195.020706 41.000210,206.043610 
	C41.013042,220.141251 44.681728,233.586792 50.337353,246.186096 
	C55.269562,257.173828 61.703499,267.597412 68.419174,277.638000 
	C73.313393,284.955322 79.170982,291.864471 85.628349,297.844086 
	C95.044647,306.563812 105.017555,314.468506 116.589951,320.766205 
	C127.997986,326.974457 139.615845,332.204102 152.051636,334.720978 
	C164.838272,337.308899 178.055359,338.061981 191.130371,338.823608 
	C199.009171,339.282532 206.976227,338.226562 215.852295,337.987427 
	C219.635834,337.994232 223.424622,338.128784 227.201553,337.974121 
	C231.512192,337.797607 235.812286,337.363464 240.826721,337.428070 
	C242.192413,337.949036 243.545593,338.878082 244.925949,338.920380 
	C250.916718,339.104095 256.915436,339.029144 263.410156,339.763550 
	C276.599152,339.835358 289.788147,339.921326 302.977234,339.939148 
	C303.672668,339.940094 304.368896,339.363861 305.919708,339.009186 
	C317.015289,339.901703 329.687012,328.551025 332.877014,318.616547 
	C336.994141,305.794769 328.786163,289.525421 316.068634,284.721741 
	C313.251831,283.657806 310.032135,283.660492 306.336060,283.037842 
	C305.890045,283.081085 305.444061,283.124298 304.388214,283.023773 
	C303.970825,283.007324 303.553406,282.990845 302.645294,282.238831 
	C286.106201,282.213531 269.567139,282.188232 252.101898,282.017639 
	C247.393204,282.068665 242.684494,282.119690 237.052841,282.019165 
	C226.018494,282.069214 214.984146,282.119263 203.027939,282.029724 
	C198.531799,282.019073 194.034302,281.932159 189.539749,282.011444 
	C173.167831,282.300232 157.447617,279.983643 143.384293,270.785980 
	C136.288818,266.145416 128.548660,262.377289 123.062981,255.579926 
	C121.414917,253.537766 119.721687,251.529953 117.994751,249.553940 
	C109.882019,240.270996 103.209900,229.952515 100.765717,217.869171 
	C98.673172,207.524323 98.076248,196.820175 97.550400,186.238541 
	C97.276909,180.735153 97.567528,174.791595 99.380547,169.676834 
	C104.107605,156.341171 109.230667,142.859177 119.774078,132.862976 
	C127.032402,125.981361 134.993103,119.649223 143.368851,114.189873 
	C152.241211,108.406837 162.685150,106.019981 173.917831,103.983299 
z"/>
<path fill="#A0E00E" opacity="1.000000" stroke="none" 
	d="
M314.997955,400.166443 
	C333.234375,398.800537 348.481659,390.739044 362.303009,379.293762 
	C372.303436,371.012573 380.265625,360.947968 385.561554,349.340790 
	C389.303558,341.139435 391.546478,331.950104 392.736389,322.973541 
	C393.933167,313.944916 393.899384,304.516663 392.723206,295.482483 
	C391.725403,287.818390 388.872894,280.242371 385.893158,273.018402 
	C376.958282,251.356979 360.533752,236.886597 339.345917,228.062271 
	C331.349060,224.731750 322.304077,223.917938 313.169800,221.576187 
	C310.386322,220.799744 308.170441,220.062592 305.953339,220.058792 
	C264.249390,219.987457 222.545303,220.002975 180.841232,220.000336 
	C167.920700,219.643539 153.600174,198.471313 158.972427,185.354294 
	C162.379791,177.034760 168.620590,171.603958 176.472672,168.136063 
	C181.088440,166.097504 186.279373,165.361252 191.994949,164.278885 
	C200.851624,164.401077 208.924957,164.283600 216.998291,164.166138 
	C218.696503,164.106537 220.394714,164.046936 222.985703,163.976730 
	C241.290146,163.965378 258.701813,163.964645 276.113464,163.963913 
	C290.370331,164.310349 304.708130,163.822098 318.865570,165.194260 
	C341.427155,167.380966 362.966431,173.255829 382.407227,185.807251 
	C395.708832,194.395081 406.783478,205.070496 417.187775,216.890930 
	C425.049469,225.822723 431.472137,235.501221 436.411530,246.108627 
	C442.432678,259.039154 446.042084,272.788452 449.180756,286.746674 
	C452.342102,300.805878 453.409943,314.966492 450.641418,328.801941 
	C448.133270,341.336334 446.360626,354.079987 440.890930,366.182312 
	C434.815552,379.624878 427.793884,392.189606 418.230896,404.025909 
	C417.479828,404.583893 417.242920,404.841309 417.006012,405.098694 
	C417.006012,405.098694 417.017303,405.022705 416.716858,405.119537 
	C415.622345,406.494965 414.828278,407.773560 414.034241,409.052155 
	C414.034241,409.052155 414.002502,409.003235 413.813477,409.134155 
	C413.416687,409.529205 413.208954,409.793335 413.001221,410.057495 
	C413.001221,410.057495 412.997650,410.000488 412.665344,410.038269 
	C409.081268,411.434692 406.194946,413.120056 405.973389,417.188232 
	C399.519989,422.422546 393.509491,428.367218 386.512604,432.729919 
	C375.134460,439.824402 363.751526,447.269562 350.252075,450.022919 
	C338.530823,452.413605 326.783905,454.678467 314.127228,456.974304 
	C307.736786,456.924896 302.263763,456.765656 296.799042,456.912689 
	C291.209351,457.063141 285.627777,457.513885 280.042633,457.833191 
	C276.342712,457.880493 272.642761,457.927826 268.114746,457.721130 
	C265.814728,457.289032 264.342987,456.957489 262.870819,456.955597 
	C235.853302,456.920929 208.835693,456.910187 181.818237,456.960938 
	C180.214249,456.963928 178.611328,457.527283 177.007904,457.829895 
	C172.644485,457.880585 168.281052,457.931274 163.088287,457.729065 
	C150.121872,457.319855 137.984802,457.163544 125.847748,457.007263 
	C113.915817,456.429596 102.947281,447.596527 99.804398,435.076355 
	C97.096878,424.290436 103.588486,406.981903 116.873901,404.520172 
	C119.346893,404.061951 121.680923,402.853699 124.948700,401.997864 
	C186.605591,402.002502 247.392914,402.020691 308.180054,401.921906 
	C310.453613,401.918213 312.725372,400.777374 314.997955,400.166443 
z"/>
<path fill="#A0E00E" opacity="1.000000" stroke="none" 
	d="
M214.903625,337.851318 
	C206.976227,338.226562 199.009171,339.282532 191.130371,338.823608 
	C178.055359,338.061981 164.838272,337.308899 152.051636,334.720978 
	C139.615845,332.204102 127.997986,326.974457 116.589951,320.766205 
	C105.017555,314.468506 95.044647,306.563812 85.628349,297.844086 
	C79.170982,291.864471 73.313393,284.955322 68.419174,277.638000 
	C61.703499,267.597412 55.269562,257.173828 50.337353,246.186096 
	C44.681728,233.586792 41.013042,220.141251 41.000210,206.043610 
	C40.990177,195.020706 40.289249,183.935959 41.242546,172.996094 
	C41.905102,165.392670 44.395943,157.832031 46.893059,150.533890 
	C50.167419,140.964157 53.976673,131.548508 58.107422,122.313293 
	C60.095127,117.869331 63.111401,113.812592 66.076790,109.894516 
	C71.581665,102.621101 76.734428,94.898949 83.239342,88.610718 
	C91.400009,80.721893 100.104591,72.950684 109.815536,67.238724 
	C119.084808,61.786556 128.467285,56.203827 139.520767,53.566952 
	C149.158798,51.267727 158.583664,48.551468 168.533722,47.906399 
	C173.053802,47.613361 177.530106,46.644886 182.949585,45.973793 
	C195.233994,45.925854 206.595093,45.886925 217.956192,45.848000 
	C223.190781,47.873535 228.750992,49.322441 233.587189,52.053478 
	C241.794846,56.688412 244.802628,65.117714 244.438126,73.703270 
	C243.805756,88.597992 236.528778,99.074699 219.997253,102.005325 
	C206.831345,102.021721 194.525055,101.900703 182.223999,102.100769 
	C179.147980,102.150787 176.088745,103.234436 173.021805,103.843033 
	C162.685150,106.019981 152.241211,108.406837 143.368851,114.189873 
	C134.993103,119.649223 127.032402,125.981361 119.774078,132.862976 
	C109.230667,142.859177 104.107605,156.341171 99.380547,169.676834 
	C97.567528,174.791595 97.276909,180.735153 97.550400,186.238541 
	C98.076248,196.820175 98.673172,207.524323 100.765717,217.869171 
	C103.209900,229.952515 109.882019,240.270996 117.994751,249.553940 
	C119.721687,251.529953 121.414917,253.537766 123.062981,255.579926 
	C128.548660,262.377289 136.288818,266.145416 143.384293,270.785980 
	C157.447617,279.983643 173.167831,282.300232 189.539749,282.011444 
	C194.034302,281.932159 198.531799,282.019073 203.859222,282.295166 
	C209.836151,282.733063 214.984512,283.099609 220.126709,283.027161 
	C226.079254,282.943237 232.026337,282.473145 237.975800,282.170746 
	C242.684494,282.119690 247.393204,282.068665 252.935516,282.263550 
	C255.414597,282.673309 257.059784,282.976166 258.705566,282.979309 
	C273.515656,283.007599 288.325867,282.983246 303.136017,282.974365 
	C303.553406,282.990845 303.970825,283.007324 304.879883,283.212646 
	C305.913696,283.325012 306.455811,283.248535 306.997955,283.172028 
	C310.032135,283.660492 313.251831,283.657806 316.068634,284.721741 
	C328.786163,289.525421 336.994141,305.794769 332.877014,318.616547 
	C329.687012,328.551025 317.015289,339.901703 305.021271,339.004242 
	C290.385651,339.015594 276.648438,339.031891 262.911255,339.048187 
	C256.915436,339.029144 250.916718,339.104095 244.925949,338.920380 
	C243.545593,338.878082 242.192413,337.949036 239.996689,337.201538 
	C231.078979,337.267120 222.991302,337.559204 214.903625,337.851318 
z"/>
<path fill="#A5D924" opacity="1.000000" stroke="none" 
	d="
M314.566010,400.096497 
	C312.725372,400.777374 310.453613,401.918213 308.180054,401.921906 
	C247.392914,402.020691 186.605591,402.002502 125.339745,401.991028 
	C126.374428,401.655396 127.885712,401.064026 129.401215,401.053040 
	C141.279312,400.966766 153.158188,400.991699 165.970367,400.974365 
	C212.945770,400.946228 258.987640,400.926025 305.029510,400.905823 
	C308.064362,400.612732 311.099213,400.319641 314.566010,400.096497 
z"/>
<path fill="#FFFF00" opacity="1.000000" stroke="none" 
	d="
M304.812561,400.530640 
	C258.987640,400.926025 212.945770,400.946228 166.435577,400.935852 
	C166.650589,400.604675 167.334000,400.040894 168.017303,400.041016 
	C213.543411,400.050140 259.069519,400.104767 304.812561,400.530640 
z"/>
<path fill="#AADB2A" opacity="1.000000" stroke="none" 
	d="
M181.096985,220.363495 
	C222.545303,220.002975 264.249390,219.987457 305.953339,220.058792 
	C308.170441,220.062592 310.386322,220.799744 312.812744,221.511795 
	C298.110474,221.553085 283.199005,221.110962 268.285797,221.039505 
	C241.131775,220.909378 213.976685,221.004395 186.822052,220.985687 
	C184.998886,220.984436 183.175827,220.816864 181.096985,220.363495 
z"/>
<path fill="#ACCE52" opacity="1.000000" stroke="none" 
	d="
M177.471786,457.900391 
	C178.611328,457.527283 180.214249,456.963928 181.818237,456.960938 
	C208.835693,456.910187 235.853302,456.920929 262.870819,456.955597 
	C264.342987,456.957489 265.814728,457.289032 267.659821,457.652588 
	C238.000534,457.882294 207.968094,457.926575 177.471786,457.900391 
z"/>
<path fill="#A9CF42" opacity="1.000000" stroke="none" 
	d="
M275.865356,163.601501 
	C258.701813,163.964645 241.290146,163.965378 223.408936,163.935501 
	C223.470856,163.613647 224.002670,163.067383 224.533691,163.068146 
	C241.561584,163.092499 258.589417,163.169769 275.865356,163.601501 
z"/>
<path fill="#ABD930" opacity="1.000000" stroke="none" 
	d="
M173.469818,103.913162 
	C176.088745,103.234436 179.147980,102.150787 182.223999,102.100769 
	C194.525055,101.900703 206.831345,102.021721 219.608765,102.035316 
	C218.553879,102.364555 217.028931,102.939384 215.497482,102.957245 
	C207.538666,103.050095 199.575653,102.878189 191.619110,103.041786 
	C185.714722,103.163185 179.817978,103.655952 173.469818,103.913162 
z"/>
<path fill="#ABDF21" opacity="1.000000" stroke="none" 
	d="
M302.890656,282.606598 
	C288.325867,282.983246 273.515656,283.007599 258.705566,282.979309 
	C257.059784,282.976166 255.414597,282.673309 253.398590,282.336182 
	C269.567139,282.188232 286.106201,282.213531 302.890656,282.606598 
z"/>
<path fill="#ACCD55" opacity="1.000000" stroke="none" 
	d="
M263.160706,339.405884 
	C276.648438,339.031891 290.385651,339.015594 304.593811,339.027802 
	C304.368896,339.363861 303.672668,339.940094 302.977234,339.939148 
	C289.788147,339.921326 276.599152,339.835358 263.160706,339.405884 
z"/>
<path fill="#AED155" opacity="1.000000" stroke="none" 
	d="
M126.093971,457.376892 
	C137.984802,457.163544 150.121872,457.319855 162.627197,457.663818 
	C150.777039,457.816528 138.558609,457.781525 126.093971,457.376892 
z"/>
<path fill="#AAD23A" opacity="1.000000" stroke="none" 
	d="
M217.702423,45.516449 
	C206.595093,45.886925 195.233994,45.925854 183.402130,45.942184 
	C183.965683,45.611778 184.999863,45.037750 186.034317,45.037304 
	C196.505737,45.032784 206.977219,45.121994 217.702423,45.516449 
z"/>
<path fill="#ADD150" opacity="1.000000" stroke="none" 
	d="
M280.503357,457.900940 
	C285.627777,457.513885 291.209351,457.063141 296.799042,456.912689 
	C302.263763,456.765656 307.736786,456.924896 313.687500,456.971436 
	C312.658234,457.325653 311.149963,457.933044 309.636658,457.945831 
	C300.079742,458.026825 290.521759,457.975983 280.503357,457.900940 
z"/>
<path fill="#ACCE52" opacity="1.000000" stroke="none" 
	d="
M237.514313,282.094971 
	C232.026337,282.473145 226.079254,282.943237 220.126709,283.027161 
	C214.984512,283.099609 209.836151,282.733063 204.320160,282.364929 
	C214.984146,282.119263 226.018494,282.069214 237.514313,282.094971 
z"/>
<path fill="#ACCE52" opacity="1.000000" stroke="none" 
	d="
M215.377960,337.919373 
	C222.991302,337.559204 231.078979,337.267120 239.641815,337.008118 
	C235.812286,337.363464 231.512192,337.797607 227.201553,337.974121 
	C223.424622,338.128784 219.635834,337.994232 215.377960,337.919373 
z"/>
<path fill="#ABDF21" opacity="1.000000" stroke="none" 
	d="
M216.533936,164.094345 
	C208.924957,164.283600 200.851624,164.401077 192.408844,164.345856 
	C200.049454,164.122955 208.059525,164.072754 216.533936,164.094345 
z"/>
<path fill="#A7D330" opacity="1.000000" stroke="none" 
	d="
M406.284546,417.039429 
	C406.194946,413.120056 409.081268,411.434692 412.690948,410.050903 
	C410.897827,412.314026 408.746765,414.602325 406.284546,417.039429 
z"/>
<path fill="#A7D330" opacity="1.000000" stroke="none" 
	d="
M414.346558,408.934021 
	C414.828278,407.773560 415.622345,406.494965 416.754822,405.125427 
	C416.281769,406.294952 415.470337,407.555420 414.346558,408.934021 
z"/>
<path fill="#ABDF21" opacity="1.000000" stroke="none" 
	d="
M306.666992,283.104919 
	C306.455811,283.248535 305.913696,283.325012 305.184814,283.284515 
	C305.444061,283.124298 305.890045,283.081085 306.666992,283.104919 
z"/>
<path fill="#A7D330" opacity="1.000000" stroke="none" 
	d="
M417.268555,405.006958 
	C417.242920,404.841309 417.479828,404.583893 417.926422,404.167847 
	C417.934448,404.311218 417.732788,404.613220 417.268555,405.006958 
z"/>
<path fill="#A7D330" opacity="1.000000" stroke="none" 
	d="
M413.263397,409.984741 
	C413.208954,409.793335 413.416687,409.529205 413.842621,409.134918 
	C413.882385,409.307159 413.703979,409.609589 413.263397,409.984741 
z"/>
</svg>